<svg width="1455" height="911" viewBox="0 0 1455 911" fill="none" xmlns="http://www.w3.org/2000/svg" role="img" aria-labelledby="title desc">
  <title id="title">juliosuas terminal profile</title>
  <desc id="desc">A black macOS style terminal with green text, Julio's profile data, and a white rabbit ASCII drawing.</desc>
  <rect x="1" y="1" width="1453" height="909" rx="10" fill="#020402" stroke="#333"/>
  <rect x="1" y="1" width="1453" height="47" rx="10" fill="#292929"/>
  <rect x="1" y="39" width="1453" height="9" fill="#292929"/>
  <circle cx="20" cy="20" r="12" fill="#ff5f57"/>
  <circle cx="60" cy="20" r="12" fill="#febc2e"/>
  <circle cx="100" cy="20" r="12" fill="#28c840"/>
  <text x="370" y="29" fill="#a7a7a7" font-family="SFMono-Regular, Menlo, Consolas, 'Liberation Mono', monospace" font-size="24" font-weight="700">juliosuas - juliosuas@fsociety - ~ - zsh - 80x24</text>
  <defs>
    <filter id="soft-glow" x="-20%" y="-20%" width="140%" height="140%">
      <feGaussianBlur stdDeviation="1.1" result="blur"/>
      <feMerge>
        <feMergeNode in="blur"/>
        <feMergeNode in="SourceGraphic"/>
      </feMerge>
    </filter>
    <linearGradient id="scan" x1="0" y1="0" x2="0" y2="1">
      <stop offset="0" stop-color="#071907" stop-opacity=".14"/>
      <stop offset=".5" stop-color="#43e643" stop-opacity=".045"/>
      <stop offset="1" stop-color="#071907" stop-opacity=".14"/>
    </linearGradient>
  </defs>
  <rect x="2" y="48" width="1451" height="861" fill="#000"/>
  <g opacity=".42">
    <rect x="2" y="92" width="1451" height="28" fill="url(#scan)"/>
    <rect x="2" y="204" width="1451" height="28" fill="url(#scan)"/>
    <rect x="2" y="318" width="1451" height="28" fill="url(#scan)"/>
    <rect x="2" y="434" width="1451" height="28" fill="url(#scan)"/>
    <rect x="2" y="548" width="1451" height="28" fill="url(#scan)"/>
    <rect x="2" y="662" width="1451" height="28" fill="url(#scan)"/>
    <rect x="2" y="776" width="1451" height="28" fill="url(#scan)"/>
  </g>
  <g font-family="SFMono-Regular, Menlo, Consolas, 'Liberation Mono', monospace" font-size="25" font-weight="700" filter="url(#soft-glow)" fill="#43e643">
    <text x="3" y="78">Last login: Sat Jun  6 02:54:00 on ttys017</text>

    <text x="3" y="151">wake up, Julio...</text>
    <text x="147" y="188">the matrix has you</text>
    <text x="111" y="224">follow the white rabbit.</text>

    <text x="184" y="295">knock, knock, Julio.</text>

    <text x="434" y="367">(`.        ,-,</text>
    <text x="434" y="404"> `.`.    ,','</text>
    <text x="434" y="441">   `.`\ ,','</text>
    <text x="434" y="478">     `. X ,'</text>
    <text x="292" y="515">.-;--''--.._` `(</text>
    <text x="259" y="552">.'            /   `</text>
    <text x="237" y="589">,           ` '   Q '</text>
    <text x="237" y="626">,         ,   `._    \</text>
    <text x="214" y="663">,.|         '     `-.;_'</text>
    <text x="214" y="700">:  . `  ;    `  ` --,.._;</text>
    <text x="236" y="737">' `    ,   )   .'</text>
    <text x="279" y="774">`._ ,  '   /_</text>
    <text x="300" y="811">; ,''-,;' ``-</text>
    <text x="321" y="848">``-..__\\</text>

    <text x="880" y="367">~ &gt; whoami</text>
    <text x="880" y="404">Julio Cesar Suastegui</text>

    <text x="880" y="478">~ &gt; finger julio</text>
    <text x="880" y="515">Login: juliosuas</text>
    <text x="880" y="552">Shell: /bin/zsh</text>
    <text x="880" y="589">Where: Mexico City</text>
    <text x="880" y="626">Mode: founder / security</text>
    <text x="880" y="663">Stack: automation / tools</text>

    <text x="880" y="737">~ &gt; ls ~/work</text>
    <text x="880" y="774">ghost  rocio  ai-garden</text>
    <text x="880" y="811">copyfail-guard</text>
    <text x="880" y="848">jeffrey-os-dashboard</text>
  </g>
</svg>
