<svg width="1280" height="760" viewBox="0 0 1280 760" fill="none" xmlns="http://www.w3.org/2000/svg" role="img" aria-labelledby="title desc">
  <title id="title">Julio Suastegui GitHub stats dashboard</title>
  <desc id="desc">A visual dashboard with a pie chart, contribution bars for important repositories, and highlighted public repositories.</desc>
  <rect width="1280" height="760" fill="#08090d"/>
  <rect x="24" y="24" width="1232" height="712" rx="8" fill="#0b0d12" stroke="#2a3342" stroke-width="2"/>
  <text x="56" y="78" fill="#f2f5ff" font-family="SFMono-Regular, Menlo, Consolas, monospace" font-size="30" font-weight="700">PUBLIC RECEIPTS / VISUAL MODE</text>
  <text x="56" y="112" fill="#8d98ac" font-family="SFMono-Regular, Menlo, Consolas, monospace" font-size="18">pie chart + repo contribution signal + best repo preview board</text>

  <g transform="translate(62 156)">
    <rect width="344" height="344" fill="#11131a" stroke="#2a3342"/>
    <text x="28" y="42" fill="#f2f5ff" font-family="SFMono-Regular, Menlo, Consolas, monospace" font-size="22">activity pie</text>
    <circle cx="172" cy="180" r="92" fill="none" stroke="#ff6b6b" stroke-width="38" stroke-dasharray="210 578" transform="rotate(-90 172 180)"/>
    <circle cx="172" cy="180" r="92" fill="none" stroke="#75d7ff" stroke-width="38" stroke-dasharray="165 578" stroke-dashoffset="-210" transform="rotate(-90 172 180)"/>
    <circle cx="172" cy="180" r="92" fill="none" stroke="#ff8fd4" stroke-width="38" stroke-dasharray="120 578" stroke-dashoffset="-375" transform="rotate(-90 172 180)"/>
    <circle cx="172" cy="180" r="92" fill="none" stroke="#7cff9b" stroke-width="38" stroke-dasharray="83 578" stroke-dashoffset="-495" transform="rotate(-90 172 180)"/>
    <circle cx="172" cy="180" r="51" fill="#0b0d12" stroke="#2a3342"/>
    <text x="132" y="188" fill="#f2f5ff" font-family="SFMono-Regular, Menlo, Consolas, monospace" font-size="22">LIVE</text>
    <rect x="34" y="290" width="14" height="14" fill="#ff6b6b"/><text x="58" y="304" fill="#cbd2df" font-family="SFMono-Regular, Menlo, Consolas, monospace" font-size="16">code</text>
    <rect x="124" y="290" width="14" height="14" fill="#75d7ff"/><text x="148" y="304" fill="#cbd2df" font-family="SFMono-Regular, Menlo, Consolas, monospace" font-size="16">prs</text>
    <rect x="204" y="290" width="14" height="14" fill="#ff8fd4"/><text x="228" y="304" fill="#cbd2df" font-family="SFMono-Regular, Menlo, Consolas, monospace" font-size="16">repos</text>
    <rect x="284" y="290" width="14" height="14" fill="#7cff9b"/><text x="308" y="304" fill="#cbd2df" font-family="SFMono-Regular, Menlo, Consolas, monospace" font-size="16">ops</text>
  </g>

  <g transform="translate(444 156)">
    <rect width="734" height="344" fill="#11131a" stroke="#2a3342"/>
    <text x="28" y="42" fill="#f2f5ff" font-family="SFMono-Regular, Menlo, Consolas, monospace" font-size="22">important repo contribution signal</text>
    <text x="28" y="86" fill="#8d98ac" font-family="SFMono-Regular, Menlo, Consolas, monospace" font-size="16">juliosuas/ghost</text>
    <rect x="214" y="70" width="475" height="20" fill="#1b202c"/><rect x="214" y="70" width="430" height="20" fill="#ff6b6b"/>
    <text x="28" y="130" fill="#8d98ac" font-family="SFMono-Regular, Menlo, Consolas, monospace" font-size="16">juliosuas/rocio</text>
    <rect x="214" y="114" width="475" height="20" fill="#1b202c"/><rect x="214" y="114" width="384" height="20" fill="#75d7ff"/>
    <text x="28" y="174" fill="#8d98ac" font-family="SFMono-Regular, Menlo, Consolas, monospace" font-size="16">juliosuas/ai-garden</text>
    <rect x="214" y="158" width="475" height="20" fill="#1b202c"/><rect x="214" y="158" width="326" height="20" fill="#ff8fd4"/>
    <text x="28" y="218" fill="#8d98ac" font-family="SFMono-Regular, Menlo, Consolas, monospace" font-size="16">getsentry/sentry-python</text>
    <rect x="214" y="202" width="475" height="20" fill="#1b202c"/><rect x="214" y="202" width="268" height="20" fill="#7cff9b"/>
    <text x="28" y="262" fill="#8d98ac" font-family="SFMono-Regular, Menlo, Consolas, monospace" font-size="16">mitmproxy/mitmproxy</text>
    <rect x="214" y="246" width="475" height="20" fill="#1b202c"/><rect x="214" y="246" width="214" height="20" fill="#ffd166"/>
    <text x="28" y="306" fill="#8d98ac" font-family="SFMono-Regular, Menlo, Consolas, monospace" font-size="16">getsentry/responses</text>
    <rect x="214" y="290" width="475" height="20" fill="#1b202c"/><rect x="214" y="290" width="185" height="20" fill="#b084ff"/>
  </g>

  <g transform="translate(62 540)">
    <rect width="344" height="136" fill="#11131a" stroke="#2a3342"/>
    <text x="24" y="42" fill="#ff6b6b" font-family="SFMono-Regular, Menlo, Consolas, monospace" font-size="22">ghost</text>
    <text x="24" y="76" fill="#cbd2df" font-family="SFMono-Regular, Menlo, Consolas, monospace" font-size="16">username intelligence</text>
    <text x="24" y="106" fill="#8d98ac" font-family="SFMono-Regular, Menlo, Consolas, monospace" font-size="15">claim calibration / public OSINT</text>
  </g>
  <g transform="translate(444 540)">
    <rect width="344" height="136" fill="#11131a" stroke="#2a3342"/>
    <text x="24" y="42" fill="#75d7ff" font-family="SFMono-Regular, Menlo, Consolas, monospace" font-size="22">rocio</text>
    <text x="24" y="76" fill="#cbd2df" font-family="SFMono-Regular, Menlo, Consolas, monospace" font-size="16">flower workflow</text>
    <text x="24" y="106" fill="#8d98ac" font-family="SFMono-Regular, Menlo, Consolas, monospace" font-size="15">local-first / visual product</text>
  </g>
  <g transform="translate(826 540)">
    <rect width="352" height="136" fill="#11131a" stroke="#2a3342"/>
    <text x="24" y="42" fill="#ff8fd4" font-family="SFMono-Regular, Menlo, Consolas, monospace" font-size="22">ai-garden</text>
    <text x="24" y="76" fill="#cbd2df" font-family="SFMono-Regular, Menlo, Consolas, monospace" font-size="16">agent experiment</text>
    <text x="24" y="106" fill="#8d98ac" font-family="SFMono-Regular, Menlo, Consolas, monospace" font-size="15">interactive systems / weird tools</text>
  </g>
</svg>
